# xmcd CD database file
#
# Track frame offsets:
#	150
#	14421
#	28881
#	52008
#	69438
#	85923
#	103056
#	121944
#	140265
#	153024
#	172074
#	205947
#
# Disc length: 2937 seconds
#
# Revision: 0
# Processed by: cddbd v1.5.1PL0 Copyright (c) Steve Scherf et al.
# Submitted via: CDex 1.51
#
DISCID=a10b770c
DTITLE=griffith, nancy - one fair summer evening
DYEAR=1990
DGENRE=Country
TTITLE0=once in a very blue moon
TTITLE1=looking for the time (workin' girl)
TTITLE2=deadwood, south dakota
TTITLE3=more than a whisper
TTITLE4=i would bring you ireland
TTITLE5=roseville fair
TTITLE6=workin' in corners
TTITLE7=trouble in the fields
TTITLE8=the wing and the wheel
TTITLE9=from a distance
TTITLE10=love at the five and dime
TTITLE11=spin on a red brick floor
EXTD=YEAR: 1990
EXTT0=
EXTT1=
EXTT2=
EXTT3=
EXTT4=
EXTT5=
EXTT6=
EXTT7=
EXTT8=
EXTT9=
EXTT10=
EXTT11=
PLAYORDER=
